# xmcd
#
# Track frame offsets: 
#        150
#        11951
#        28085
#        41892
#        60436
#        79913
#        97426
#        118283
#        140338
#        157851
#        174876
#        192640
#        218199
#        234096
#
# Disc length: 3336 seconds
#
# Revision: 0
# Processed by: cddbd v1.5.2PL0 Copyright (c) Steve Scherf et al.
# Submitted via: ExactAudioCopyFreeDBPlugin 1.0
#
DISCID=c40d060e
DTITLE=Emmylou Harris - Producer's Cut
DYEAR=2002
DGENRE=Country
TTITLE0=If I Could Only Win Your Love
TTITLE1=Boulder to Birmingham
TTITLE2=One of these Days
TTITLE3=Too Far Gone
TTITLE4=Leaving Louisiana in the Broad Daylight
TTITLE5=Together Again
TTITLE6=Tulsa Queen
TTITLE7=Pancho and Lefty
TTITLE8=Spanish Johnny (With Waylon Jennings)
TTITLE9=Beneath Still Waters
TTITLE10=Even Cowgirls Get the Blues (With Dolly Parton and Linda Ronsta
TTITLE10=dt)
TTITLE11=The Last Cheater's Waltz
TTITLE12=Sorrow in the Wind
TTITLE13=Old Rugged Cross (With Johnny Cash)
EXTD=
EXTT0=
EXTT1=
EXTT2=
EXTT3=
EXTT4=
EXTT5=
EXTT6=
EXTT7=
EXTT8=
EXTT9=
EXTT10=
EXTT11=
EXTT12=
EXTT13=
PLAYORDER=
